<svg width="373" height="77" viewBox="0 0 373 77" fill="none" xmlns="http://www.w3.org/2000/svg">
<rect y="1" width="76" height="76" rx="18.2083" fill="#5C50E5"/>
<path d="M17.2367 62C16.8048 62 16.4162 61.8489 16.0708 61.5466C15.7685 61.2011 15.6173 60.8125 15.6173 60.3807V18.2784C15.6173 17.8034 15.7685 17.4148 16.0708 17.1125C16.4162 16.8102 16.8048 16.6591 17.2367 16.6591H24.2321C25.2685 16.6591 26.0242 17.1341 26.4992 18.0841L37.8992 38.4875L49.2992 18.0841C49.7742 17.1341 50.5298 16.6591 51.5662 16.6591H58.4969C58.9719 16.6591 59.3605 16.8102 59.6628 17.1125C60.0083 17.4148 60.181 17.8034 60.181 18.2784V60.3807C60.181 60.8557 60.0083 61.2443 59.6628 61.5466C59.3605 61.8489 58.9719 62 58.4969 62H50.7889C50.3139 62 49.9037 61.8489 49.5583 61.5466C49.256 61.2443 49.1048 60.8557 49.1048 60.3807V36.0909L41.8503 49.6284C41.2889 50.6216 40.5333 51.1182 39.5833 51.1182H36.2151C35.6537 51.1182 35.2003 50.9886 34.8548 50.7295C34.5094 50.4705 34.2071 50.1034 33.948 49.6284L26.6287 36.0909V60.3807C26.6287 60.8125 26.4776 61.2011 26.1753 61.5466C25.873 61.8489 25.4844 62 25.0094 62H17.2367Z" fill="white"/>
<path d="M100.153 61C99.7216 61 99.333 60.8489 98.9875 60.5466C98.6852 60.2011 98.5341 59.8125 98.5341 59.3807V17.2784C98.5341 16.8034 98.6852 16.4148 98.9875 16.1125C99.333 15.8102 99.7216 15.6591 100.153 15.6591H119.909C125.35 15.6591 129.388 16.7818 132.022 19.0273C134.699 21.2295 136.038 24.3818 136.038 28.4841C136.038 30.6432 135.476 32.4784 134.353 33.9898C133.274 35.458 132.043 36.5375 130.661 37.2284C132.432 38.0489 133.922 39.3659 135.131 41.1795C136.34 42.9932 136.944 45.0227 136.944 47.2682C136.944 51.5864 135.519 54.9545 132.669 57.3727C129.819 59.7909 125.76 61 120.492 61H100.153ZM118.614 33.6659C120.341 33.6659 121.658 33.2341 122.565 32.3705C123.472 31.4636 123.925 30.2761 123.925 28.808C123.925 27.383 123.472 26.2386 122.565 25.375C121.658 24.5114 120.341 24.0795 118.614 24.0795H110.193V33.6659H118.614ZM119.197 52.5795C120.967 52.5795 122.349 52.0614 123.342 51.025C124.335 49.9886 124.832 48.7364 124.832 47.2682C124.832 45.7136 124.335 44.4398 123.342 43.4466C122.349 42.4102 120.967 41.892 119.197 41.892H110.193V52.5795H119.197ZM145.047 61C144.616 61 144.227 60.8489 143.882 60.5466C143.579 60.2011 143.428 59.8125 143.428 59.3807V16.6307C143.428 16.1557 143.579 15.767 143.882 15.4648C144.227 15.1625 144.616 15.0114 145.047 15.0114H152.691C153.166 15.0114 153.554 15.1625 153.857 15.4648C154.159 15.767 154.31 16.1557 154.31 16.6307V59.3807C154.31 59.8557 154.159 60.2443 153.857 60.5466C153.554 60.8489 153.166 61 152.691 61H145.047ZM174.333 61.6477C170.533 61.6477 167.467 60.3739 165.136 57.8261C162.804 55.2352 161.638 51.6295 161.638 47.0091V28.9375C161.638 28.4625 161.789 28.0739 162.091 27.7716C162.394 27.4693 162.782 27.3182 163.257 27.3182H171.354C171.829 27.3182 172.217 27.4693 172.52 27.7716C172.865 28.0739 173.038 28.4625 173.038 28.9375V46.6205C173.038 50.8523 174.916 52.9682 178.673 52.9682C180.487 52.9682 181.912 52.4068 182.948 51.2841C183.985 50.1614 184.503 48.6068 184.503 46.6205V28.9375C184.503 28.4625 184.654 28.0739 184.956 27.7716C185.302 27.4693 185.69 27.3182 186.122 27.3182H194.219C194.694 27.3182 195.082 27.4693 195.385 27.7716C195.687 28.0739 195.838 28.4625 195.838 28.9375V59.3807C195.838 59.8125 195.687 60.2011 195.385 60.5466C195.082 60.8489 194.694 61 194.219 61H186.705C186.273 61 185.885 60.8489 185.539 60.5466C185.237 60.2011 185.086 59.8125 185.086 59.3807V56.9193C182.84 60.0716 179.256 61.6477 174.333 61.6477ZM219.002 61.6477C213.82 61.6477 209.74 60.2443 206.76 57.4375C203.781 54.6307 202.226 50.55 202.097 45.1955V42.9284C202.269 37.833 203.845 33.8602 206.825 31.0102C209.848 28.117 213.885 26.6705 218.937 26.6705C222.608 26.6705 225.695 27.4261 228.2 28.9375C230.748 30.4057 232.648 32.4352 233.9 35.0261C235.195 37.617 235.843 40.5966 235.843 43.9648V45.5193C235.843 45.9511 235.692 46.3398 235.39 46.6852C235.087 46.9875 234.699 47.1386 234.224 47.1386H213.497V47.592C213.583 49.6216 214.08 51.2625 214.986 52.5148C215.893 53.767 217.21 54.3932 218.937 54.3932C220.017 54.3932 220.902 54.1773 221.593 53.7455C222.284 53.2705 222.91 52.7091 223.472 52.0614C223.86 51.5864 224.162 51.3057 224.378 51.2193C224.637 51.0898 225.026 51.025 225.544 51.025H233.576C233.965 51.025 234.289 51.1545 234.548 51.4136C234.85 51.6295 235.001 51.9318 235.001 52.3205C235.001 53.4432 234.353 54.7386 233.058 56.2068C231.806 57.675 229.97 58.9489 227.552 60.0284C225.134 61.108 222.284 61.6477 219.002 61.6477ZM224.443 40.7261V40.5966C224.443 38.4807 223.947 36.8182 222.953 35.6091C222.003 34.3568 220.665 33.7307 218.937 33.7307C217.253 33.7307 215.915 34.3568 214.922 35.6091C213.972 36.8182 213.497 38.4807 213.497 40.5966V40.7261H224.443ZM243.535 61C243.06 61 242.671 60.8489 242.369 60.5466C242.067 60.2443 241.916 59.8557 241.916 59.3807V28.9375C241.916 28.4625 242.067 28.0739 242.369 27.7716C242.671 27.4693 243.06 27.3182 243.535 27.3182H250.595C251.07 27.3182 251.459 27.4693 251.761 27.7716C252.063 28.0739 252.214 28.4625 252.214 28.9375V31.1398C253.208 29.8443 254.525 28.7864 256.166 27.9659C257.85 27.1023 259.728 26.6705 261.801 26.6705C266.551 26.6705 269.833 28.5273 271.646 32.2409C272.683 30.6 274.129 29.2614 275.986 28.225C277.843 27.1886 279.829 26.6705 281.945 26.6705C285.486 26.6705 288.358 27.8795 290.56 30.2977C292.805 32.6727 293.928 36.2352 293.928 40.9852V59.3807C293.928 59.8125 293.777 60.2011 293.475 60.5466C293.172 60.8489 292.784 61 292.309 61H284.795C284.32 61 283.91 60.8489 283.564 60.5466C283.262 60.2443 283.111 59.8557 283.111 59.3807V41.4386C283.111 39.2795 282.658 37.725 281.751 36.775C280.887 35.825 279.7 35.35 278.188 35.35C276.807 35.35 275.662 35.8466 274.755 36.8398C273.849 37.7898 273.395 39.3227 273.395 41.4386V59.3807C273.395 59.8125 273.244 60.2011 272.942 60.5466C272.639 60.8489 272.251 61 271.776 61H264.262C263.787 61 263.399 60.8489 263.096 60.5466C262.794 60.2443 262.643 59.8557 262.643 59.3807V41.4386C262.643 39.3227 262.168 37.7898 261.218 36.8398C260.311 35.8466 259.145 35.35 257.72 35.35C256.338 35.35 255.172 35.8466 254.222 36.8398C253.316 37.7898 252.862 39.3011 252.862 41.3739V59.3807C252.862 59.8125 252.711 60.2011 252.409 60.5466C252.107 60.8489 251.718 61 251.243 61H243.535ZM311.353 61.6477C309.064 61.6477 306.97 61.2159 305.07 60.3523C303.213 59.4455 301.745 58.2364 300.665 56.725C299.629 55.1705 299.111 53.4648 299.111 51.608C299.111 48.6284 300.32 46.2318 302.738 44.4182C305.2 42.6045 308.568 41.3523 312.843 40.6614L320.939 39.4307V38.5239C320.939 36.883 320.594 35.6739 319.903 34.8966C319.212 34.1193 318.046 33.7307 316.405 33.7307C315.412 33.7307 314.592 33.9034 313.944 34.2489C313.296 34.5943 312.627 35.0693 311.936 35.6739C311.331 36.192 310.878 36.5375 310.576 36.7102C310.446 37.0557 310.209 37.2284 309.863 37.2284H302.803C302.371 37.2284 302.004 37.0989 301.702 36.8398C301.443 36.5375 301.335 36.192 301.378 35.8034C301.421 34.6375 301.983 33.342 303.062 31.917C304.185 30.492 305.869 29.2614 308.114 28.225C310.403 27.1886 313.21 26.6705 316.535 26.6705C321.846 26.6705 325.776 27.858 328.323 30.233C330.871 32.5648 332.145 35.717 332.145 39.6898V59.3807C332.145 59.8125 331.994 60.2011 331.692 60.5466C331.389 60.8489 331.001 61 330.526 61H323.012C322.58 61 322.192 60.8489 321.846 60.5466C321.544 60.2011 321.393 59.8125 321.393 59.3807V57.1136C320.443 58.4523 319.104 59.5534 317.377 60.417C315.693 61.2375 313.685 61.6477 311.353 61.6477ZM314.397 54.2636C316.384 54.2636 317.981 53.6159 319.19 52.3205C320.443 51.025 321.069 49.125 321.069 46.6205V45.7136L315.563 46.6852C311.677 47.3761 309.734 48.7364 309.734 50.7659C309.734 51.8455 310.187 52.7091 311.094 53.3568C312.001 53.9614 313.102 54.2636 314.397 54.2636ZM341.009 22.4602C340.534 22.4602 340.145 22.3091 339.843 22.0068C339.541 21.7045 339.389 21.3159 339.389 20.8409V15.0114C339.389 14.5364 339.541 14.1477 339.843 13.8455C340.145 13.5432 340.534 13.392 341.009 13.392H348.782C349.257 13.392 349.645 13.5432 349.947 13.8455C350.25 14.1477 350.401 14.5364 350.401 15.0114V20.8409C350.401 21.3159 350.25 21.7045 349.947 22.0068C349.645 22.3091 349.257 22.4602 348.782 22.4602H341.009ZM341.074 61C340.599 61 340.21 60.8489 339.908 60.5466C339.605 60.2443 339.454 59.8557 339.454 59.3807V28.9375C339.454 28.4625 339.605 28.0739 339.908 27.7716C340.21 27.4693 340.599 27.3182 341.074 27.3182H348.717C349.192 27.3182 349.58 27.4693 349.883 27.7716C350.185 28.0739 350.336 28.4625 350.336 28.9375V59.3807C350.336 59.8125 350.185 60.2011 349.883 60.5466C349.58 60.8489 349.192 61 348.717 61H341.074ZM359.607 61C359.175 61 358.787 60.8489 358.441 60.5466C358.139 60.2011 357.988 59.8125 357.988 59.3807V16.6307C357.988 16.1557 358.139 15.767 358.441 15.4648C358.787 15.1625 359.175 15.0114 359.607 15.0114H367.25C367.725 15.0114 368.114 15.1625 368.416 15.4648C368.719 15.767 368.87 16.1557 368.87 16.6307V59.3807C368.87 59.8557 368.719 60.2443 368.416 60.5466C368.114 60.8489 367.725 61 367.25 61H359.607Z" fill="#5C50E5"/>
</svg>
